# File created by Blade
# Date/Time:  Tue Apr 07 20:49:15 2015
#---------------------------------------------------------
:version 1.10
:name HOM
:units
  mass 1.0
  length 1.000000
  angle deg
:documentation
     Acclaim Skeleton File
:root
   axis xyz
   order TX TY TZ RX RY RZ
   position 0.000000 0.000000 0.000000
   orientation 0 0 0
:bonedata
   begin
      id 1
      name Spine_dum
      direction 0.000000 1.000000 0.000000
      length 4.885285
      axis 0.0 0.0 0.0 xyz
   end
   begin
      id 2
      name LeftUpLeg_dum
      direction 1.000000 0.000000 0.000000
      length 2.672193
      axis 0.0 0.0 0.0 xyz
   end
   begin
      id 3
      name RightUpLeg_dum
      direction -1.000000 0.000000 0.000000
      length 2.672193
      axis 0.0 0.0 0.0 xyz
   end
   begin
      id 4
      name Spine
      direction 0.000000 1.000000 0.000000
      length 0.000000
      axis 0.0 0.0 0.0 xyz
      dof rx ry rz
   end
   begin
      id 5
      name Spine_dum1
      direction 0.000000 1.000000 0.000000
      length 16.494159
      axis 0.0 0.0 0.0 xyz
   end
   begin
      id 6
      name Spine_dum2
      direction 0.000000 1.000000 0.000000
      length 10.663448
      axis 0.0 0.0 0.0 xyz
   end
   begin
      id 7
      name Spine_dum3
      direction 0.000000 1.000000 0.000000
      length 10.663448
      axis 0.0 0.0 0.0 xyz
   end
   begin
      id 8
      name Head
      direction 0.000000 1.000000 0.000000
      length 4.527550
      axis 0.0 0.0 0.0 xyz
      dof rx ry rz
   end
   begin
      id 9
      name LeftShoulder
      direction 1.000000 0.000000 0.000000
      length 7.531907
      axis 0.0 0.0 -90.0 xyz
      dof rx ry rz
   end
   begin
      id 10
      name LeftArm
      direction 1.000000 0.000000 0.000000
      length 10.229199
      axis 0.0 0.0 -90.0 xyz
      dof rx ry rz
   end
   begin
      id 11
      name LeftForeArm
      direction 1.000000 0.000000 0.000000
      length 8.673495
      axis 0.0 0.0 -90.0 xyz
      dof ry rz rx
   end
   begin
      id 12
      name LeftHand
      direction 0.000000 0.000000 0.000000
      length 0.000000
      axis 0.0 0.0 -90.0 xyz
      dof rx ry rz
   end
   begin
      id 13
      name LeftHand_dum1
      direction 0.000000 0.000000 0.000000
      length 0.000000
      axis 0.0 0.0 -90.0 xyz
   end
   begin
      id 14
      name LeftHand_dum2
      direction 1.000000 0.000000 0.000000
      length 3.937000
      axis 0.0 0.0 -90.0 xyz
   end
   begin
      id 15
      name LeftHandThumb1
      direction 0.000000 0.000000 1.000000
      length 3.937000
      axis 0.0 0.0 -90.0 xyz
      dof rx rz ry
   end
   begin
      id 16
      name RightShoulder
      direction -1.000000 0.000000 0.000000
      length 7.531907
      axis 0.0 0.0 90.0 xyz
      dof rx ry rz
   end
   begin
      id 17
      name RightArm
      direction -1.000000 0.000000 0.000000
      length 10.229199
      axis 0.0 0.0 90.0 xyz
      dof rx ry rz
   end
   begin
      id 18
      name RightForeArm
      direction -1.000000 0.000000 0.000000
      length 8.673495
      axis 0.0 0.0 90.0 xyz
      dof ry rz rx
   end
   begin
      id 19
      name RightHand
      direction 0.000000 0.000000 0.000000
      length 0.000000
      axis 0.0 0.0 90.0 xyz
      dof rx ry rz
   end
   begin
      id 20
      name RightHand_dum1
      direction 0.000000 0.000000 0.000000
      length 0.000000
      axis 0.0 0.0 90.0 xyz
   end
   begin
      id 21
      name RightHand_dum2
      direction -1.000000 0.000000 0.000000
      length 3.937000
      axis 0.0 0.0 90.0 xyz
   end
   begin
      id 22
      name RightHandThumb1
      direction 0.000000 0.000000 1.000000
      length 3.937000
      axis 0.0 0.0 90.0 xyz
      dof rx rz ry
   end
   begin
      id 23
      name LeftUpLeg
      direction 0.000000 -1.000000 0.000000
      length 16.263388
      axis 0.0 0.0 0.0 xyz
      dof rx ry rz
   end
   begin
      id 24
      name LeftLeg
      direction 0.000000 -1.000000 0.000000
      length 14.328163
      axis 0.0 0.0 0.0 xyz
      dof rx ry rz
   end
   begin
      id 25
      name LeftFoot
      direction 0.000000 -0.258819 0.965926
      length 5.031290
      axis 15.0 0.0 0.0 xyz
      dof rx ry rz
   end
   begin
      id 26
      name LeftToeBase
      direction 0.000000 0.000000 1.000000
      length 2.952750
      axis 0.0 0.0 0.0 xyz
      dof rx ry rz
   end
   begin
      id 27
      name RightUpLeg
      direction 0.000000 -1.000000 0.000000
      length 16.263388
      axis 0.0 0.0 0.0 xyz
      dof rx ry rz
   end
   begin
      id 28
      name RightLeg
      direction 0.000000 -1.000000 0.000000
      length 14.328163
      axis 0.0 0.0 0.0 xyz
      dof rx ry rz
   end
   begin
      id 29
      name RightFoot
      direction 0.000000 -0.258819 0.965926
      length 5.031290
      axis 15.0 0.0 0.0 xyz
      dof rx ry rz
   end
   begin
      id 30
      name RightToeBase
      direction 0.000000 0.000000 1.000000
      length 2.952750
      axis 0.0 0.0 0.0 xyz
      dof rx ry rz
   end
:hierarchy
   begin
      root Spine_dum LeftUpLeg_dum RightUpLeg_dum
      Spine_dum Spine
      LeftUpLeg_dum LeftUpLeg
      RightUpLeg_dum RightUpLeg
      Spine Spine_dum1 Spine_dum2 Spine_dum3
      Spine_dum1 Head
      Spine_dum2 LeftShoulder
      Spine_dum3 RightShoulder
      LeftShoulder LeftArm
      LeftArm LeftForeArm
      LeftForeArm LeftHand
      LeftHand LeftHand_dum1 LeftHand_dum2
      LeftHand_dum1 LeftHandThumb1
      RightShoulder RightArm
      RightArm RightForeArm
      RightForeArm RightHand
      RightHand RightHand_dum1 RightHand_dum2
      RightHand_dum1 RightHandThumb1
      LeftUpLeg LeftLeg
      LeftLeg LeftFoot
      LeftFoot LeftToeBase
      RightUpLeg RightLeg
      RightLeg RightFoot
      RightFoot RightToeBase
   end

# File created by Blade
# Date/Time:  Tue Apr 07 20:49:23 2015
# Frame Rate: 120.000 fps
#------------------------------------------------------
:FULLY-SPECIFIED
:DEGREES
1
root 3.418395 32.872194 -2.260991 8.529785 -1.262213 -1.516412
Spine -12.830528 -4.373263 0.138243
Head 15.280037 -1.765994 0.336477
LeftShoulder -20.250982 39.800763 20.922248
LeftArm 58.124943 -54.405124 -55.469684
LeftForeArm 10.519360 -0.000000 -3.558503
LeftHand 3.548043 -0.000000 3.692467
LeftHandThumb1 -26.253704 0.000000 33.147579
RightShoulder -6.689232 3.232125 -29.994559
RightArm 12.424912 16.123586 44.083577
RightForeArm -9.388290 0.000000 0.371029
RightHand 3.315901 -0.000000 0.890535
RightHandThumb1 -24.326973 -0.000000 -32.862282
LeftUpLeg -1.006818 -3.099199 2.299344
LeftLeg -5.716993 -0.000000 0.000000
LeftFoot -3.860794 13.314507 -15.220576
LeftToeBase -10.975454 -0.000000 0.000000
RightUpLeg -2.210444 -0.932430 1.599527
RightLeg -4.204908 -0.000000 0.000000
RightFoot -4.970479 -8.085222 8.445529
RightToeBase -2.156616 -0.000000 0.000000
2
root 3.421274 32.872300 -2.261429 8.524990 -1.276838 -1.523070
Spine -12.827510 -4.360613 0.140328
Head 15.277615 -1.760604 0.359739
LeftShoulder -20.253122 39.819562 20.938790
LeftArm 58.163378 -54.408701 -55.516977
LeftForeArm 10.519128 -0.000000 -3.562325
LeftHand 3.574897 -0.000000 3.649024
LeftHandThumb1 -26.253704 0.000000 33.147579
RightShoulder -6.668489 3.236405 -29.988546
RightArm 12.414154 16.116532 44.055320
RightForeArm -9.376717 -0.000000 0.361933
RightHand 3.291366 0.000000 0.876412
RightHandThumb1 -24.326973 -0.000000 -32.862282
LeftUpLeg -1.011127 -3.080932 2.298934
LeftLeg -5.694782 -0.000000 0.000000
LeftFoot -3.879218 13.300840 -15.217692
LeftToeBase -10.987443 -0.000000 0.000000
RightUpLeg -2.203612 -0.917921 1.598574
RightLeg -4.211756 -0.000000 0.000000
RightFoot -4.974534 -8.084752 8.461617
RightToeBase -2.101850 -0.000000 0.000000
3
root 3.424144 32.872082 -2.262261 8.517104 -1.289842 -1.539276
Spine -12.819400 -4.334485 0.152703
Head 15.277558 -1.756872 0.375075
LeftShoulder -20.235564 39.814485 20.964387
LeftArm 58.146693 -54.391380 -55.504090
LeftForeArm 10.517877 -0.000000 -3.552466
LeftHand 3.529037 -0.000000 3.642056
LeftHandThumb1 -26.253704 0.000000 33.147579
RightShoulder -6.668977 3.251440 -30.006012
RightArm 12.408294 16.114672 44.055467
RightForeArm -9.375981 0.000000 0.342352
RightHand 3.258554 -0.000000 0.876226
RightHandThumb1 -24.326973 -0.000000 -32.862282
LeftUpLeg -1.000606 -3.081424 2.310830
LeftLeg -5.699947 -0.000000 0.000000
LeftFoot -3.862699 13.258699 -15.384439
LeftToeBase -11.206464 -0.000000 0.000000
RightUpLeg -2.200378 -0.900154 1.607524
RightLeg -4.203265 -0.000000 0.000000
RightFoot -4.983194 -8.087739 8.471078
RightToeBase -2.073679 -0.000000 0.000000
4
root 3.427406 32.872117 -2.264197 8.517612 -1.305464 -1.546671
Spine -12.818073 -4.311640 0.156197
Head 15.274201 -1.748228 0.402905
LeftShoulder -20.218242 39.803090 20.984756
LeftArm 58.135456 -54.393779 -55.492040
LeftForeArm 10.521779 -0.000000 -3.560059
LeftHand 3.530480 -0.000000 3.617262
LeftHandThumb1 -26.253704 0.000000 33.147579
RightShoulder -6.653532 3.227712 -30.003545
RightArm 12.414478 16.147130 44.041438
RightForeArm -9.424913 -0.000000 0.342592
RightHand 3.229270 -0.000000 0.885770
RightHandThumb1 -24.326973 -0.000000 -32.862282
LeftUpLeg -1.005973 -3.098632 2.312443
LeftLeg -5.689255 -0.000000 0.000000
LeftFoot -3.908634 13.313227 -15.247037
LeftToeBase -10.991512 -0.000000 0.000000
RightUpLeg -2.218922 -0.910174 1.607223
RightLeg -4.175887 -0.000000 0.000000
RightFoot -4.988154 -8.057066 8.474764
RightToeBase -2.141948 -0.000000 0.000000
5
root 3.430191 32.871768 -2.264869 8.507694 -1.325746 -1.563470
Spine -12.806245 -4.293126 0.169707
Head 15.276206 -1.722907 0.423060
LeftShoulder -20.215455 39.795406 20.997452
LeftArm 58.128107 -54.398317 -55.483831
LeftForeArm 10.553485 -0.000000 -3.560883
LeftHand 3.518954 0.000000 3.582246
LeftHandThumb1 -26.253704 0.000000 33.147579
RightShoulder -6.642818 3.263685 -30.010358
RightArm 12.399373 16.124496 44.020712
RightForeArm -9.402818 0.000000 0.327743
RightHand 3.244335 0.000000 0.883377
RightHandThumb1 -24.326973 -0.000000 -32.862282
LeftUpLeg -0.994218 -3.083817 2.321641
LeftLeg -5.686818 -0.000000 0.000000
LeftFoot -3.928458 13.308481 -15.238322
LeftToeBase -10.967415 -0.000000 0.000000
RightUpLeg -2.213933 -0.882749 1.614925
RightLeg -4.169566 -0.000000 0.000000
RightFoot -4.990950 -8.063305 8.487441
RightToeBase -2.106289 -0.000000 0.000000
6
root 3.433322 32.871988 -2.265593 8.510709 -1.341569 -1.575902
Spine -12.812163 -4.264829 0.180796
Head 15.285708 -1.722735 0.435746
LeftShoulder -20.195385 39.792116 21.013626
LeftArm 58.091092 -54.397710 -55.445073
LeftForeArm 10.518639 -0.000000 -3.555079
LeftHand 3.540231 -0.000000 3.536946
LeftHandThumb1 -26.253704 0.000000 33.147579
RightShoulder -6.633278 3.248339 -30.013748
RightArm 12.396957 16.129307 44.005353
RightForeArm -9.433747 -0.000000 0.329427
RightHand 3.253275 -0.000000 0.842545
RightHandThumb1 -24.326973 -0.000000 -32.862282
LeftUpLeg -0.998865 -3.071892 2.325433
LeftLeg -5.678849 -0.000000 0.000000
LeftFoot -3.936805 13.310453 -15.220498
LeftToeBase -10.961921 -0.000000 0.000000
RightUpLeg -2.219910 -0.873499 1.620050
RightLeg -4.168624 -0.000000 0.000000
RightFoot -4.989742 -8.069005 8.507896
RightToeBase -2.095341 -0.000000 0.000000
7
root 3.437167 32.872000 -2.266630 8.509887 -1.352096 -1.586919
Spine -12.812965 -4.253802 0.198721
Head 15.294263 -1.707618 0.432780
LeftShoulder -20.191944 39.790485 21.007947
LeftArm 58.045372 -54.395522 -55.380731
LeftForeArm 10.500003 0.000000 -3.555297
LeftHand 3.531594 0.000000 3.539396
LeftHandThumb1 -26.253704 0.000000 33.147579
RightShoulder -6.624496 3.251814 -30.024047
RightArm 12.411103 16.110990 43.993503
RightForeArm -9.404169 -0.000000 0.316190
RightHand 3.246037 -0.000000 0.836762
RightHandThumb1 -24.326973 -0.000000 -32.862282
LeftUpLeg -0.996597 -3.067553 2.328481
LeftLeg -5.681990 -0.000000 0.000000
LeftFoot -3.950559 13.310480 -15.231504
LeftToeBase -10.956814 -0.000000 0.000000
RightUpLeg -2.220509 -0.858644 1.621424
RightLeg -4.170856 -0.000000 0.000000
RightFoot -4.985547 -8.065966 8.498492
RightToeBase -2.090112 -0.000000 0.000000
8
root 3.440911 32.871730 -2.267040 8.505927 -1.367737 -1.595279
Spine -12.809662 -4.227962 0.209189
Head 15.303562 -1.694838 0.437147
LeftShoulder -20.180562 39.792300 21.014225
LeftArm 58.056620 -54.422962 -55.398935
LeftForeArm 10.528698 0.000000 -3.544884
LeftHand 3.553124 -0.000000 3.546664
LeftHandThumb1 -26.253704 0.000000 33.147579
RightShoulder -6.618548 3.244858 -30.034212
RightArm 12.411012 16.138098 43.986316
RightForeArm -9.435749 -0.000000 0.324425
RightHand 3.236770 -0.000000 0.822654
RightHandThumb1 -24.326973 -0.000000 -32.862282
LeftUpLeg -0.994262 -3.039214 2.325197
LeftLeg -5.674542 -0.000000 0.000000
LeftFoot -3.956133 13.300950 -15.214569
LeftToeBase -10.988626 -0.000000 0.000000
RightUpLeg -2.222095 -0.843827 1.620803
RightLeg -4.162879 -0.000000 0.000000
RightFoot -4.989037 -8.059196 8.528220
RightToeBase -2.103246 -0.000000 0.000000
